<mxfile host="www.draw.io" modified="2020-02-12T06:49:51.494Z" agent="Mozilla/5.0 (Windows NT 10.0; WOW64) AppleWebKit/537.36 (KHTML, like Gecko) Chrome/77.0.3865.90 Safari/537.36" etag="H1y_VHBtPtSSeVHlHB9A" version="12.6.7" type="github">
  <diagram id="r2y3g6UmusmkUFQiE-Hi" name="Page-1">
    <mxGraphModel dx="1319" dy="1885" grid="1" gridSize="10" guides="1" tooltips="1" connect="1" arrows="1" fold="1" page="1" pageScale="1" pageWidth="827" pageHeight="1169" math="0" shadow="0">
      <root>
        <mxCell id="0"/>
        <mxCell id="1" parent="0"/>
        <mxCell id="xuoZILpICzDxaYB5TS7d-3" style="edgeStyle=orthogonalEdgeStyle;rounded=0;orthogonalLoop=1;jettySize=auto;html=1;strokeWidth=1;" edge="1" parent="1" source="xuoZILpICzDxaYB5TS7d-4" target="xuoZILpICzDxaYB5TS7d-7">
          <mxGeometry relative="1" as="geometry"/>
        </mxCell>
        <mxCell id="xuoZILpICzDxaYB5TS7d-4" value="&lt;span style=&quot;color: rgb(77 , 77 , 77) ; font-family: &amp;#34;microsoft yahei&amp;#34; , &amp;#34;sf pro display&amp;#34; , &amp;#34;roboto&amp;#34; , &amp;#34;noto&amp;#34; , &amp;#34;arial&amp;#34; , &amp;#34;pingfang sc&amp;#34; , sans-serif ; font-size: 16px ; background-color: rgb(255 , 255 , 255)&quot;&gt;frontal_face_detection.h&lt;/span&gt;" style="rounded=1;whiteSpace=wrap;html=1;strokeWidth=1;" vertex="1" parent="1">
          <mxGeometry x="510" y="130" width="210" height="60" as="geometry"/>
        </mxCell>
        <mxCell id="xuoZILpICzDxaYB5TS7d-5" value="&lt;div&gt;&lt;br&gt;&lt;/div&gt;&lt;div&gt;&lt;span&gt;&amp;nbsp; &amp;nbsp; inline frontal_face_detector get_frontal_face_detector()&lt;/span&gt;&lt;br&gt;&lt;/div&gt;&lt;div&gt;&amp;nbsp; &amp;nbsp; {&lt;/div&gt;&lt;div&gt;&amp;nbsp; &amp;nbsp; &amp;nbsp; &amp;nbsp; std::istringstream sin(get_serialized_frontal_faces());&lt;/div&gt;&lt;div&gt;&amp;nbsp; &amp;nbsp; &amp;nbsp; &amp;nbsp; frontal_face_detector detector;&lt;/div&gt;&lt;div&gt;&amp;nbsp; &amp;nbsp; &amp;nbsp; &amp;nbsp; deserialize(detector, sin);&amp;nbsp;&lt;/div&gt;&lt;div&gt;&amp;nbsp; &amp;nbsp; &amp;nbsp; &amp;nbsp; return detector;&lt;/div&gt;&lt;div&gt;&amp;nbsp; &amp;nbsp; }&lt;/div&gt;&lt;div&gt;&lt;br&gt;&lt;/div&gt;" style="shape=note;whiteSpace=wrap;html=1;backgroundOutline=1;darkOpacity=0.05;align=left;strokeWidth=1;" vertex="1" parent="1">
          <mxGeometry x="40" y="130" width="377" height="130" as="geometry"/>
        </mxCell>
        <mxCell id="xuoZILpICzDxaYB5TS7d-6" style="edgeStyle=orthogonalEdgeStyle;rounded=0;orthogonalLoop=1;jettySize=auto;html=1;exitX=0.5;exitY=1;exitDx=0;exitDy=0;strokeWidth=1;" edge="1" parent="1" source="xuoZILpICzDxaYB5TS7d-7" target="xuoZILpICzDxaYB5TS7d-10">
          <mxGeometry relative="1" as="geometry"/>
        </mxCell>
        <mxCell id="xuoZILpICzDxaYB5TS7d-7" value="&lt;pre&gt;&lt;span style=&quot;color: rgb(77 , 77 , 77) ; font-family: &amp;#34;microsoft yahei&amp;#34; , &amp;#34;sf pro display&amp;#34; , &amp;#34;roboto&amp;#34; , &amp;#34;noto&amp;#34; , &amp;#34;arial&amp;#34; , &amp;#34;pingfang sc&amp;#34; , sans-serif ; font-size: 16px ; background-color: rgb(255 , 255 , 255)&quot;&gt;object_detector.h&amp;nbsp;&lt;/span&gt;&lt;/pre&gt;" style="rounded=1;whiteSpace=wrap;html=1;strokeWidth=1;" vertex="1" parent="1">
          <mxGeometry x="530" y="280" width="170" height="60" as="geometry"/>
        </mxCell>
        <mxCell id="xuoZILpICzDxaYB5TS7d-9" style="edgeStyle=orthogonalEdgeStyle;rounded=0;orthogonalLoop=1;jettySize=auto;html=1;exitX=0.5;exitY=1;exitDx=0;exitDy=0;strokeWidth=1;" edge="1" parent="1" source="xuoZILpICzDxaYB5TS7d-10" target="xuoZILpICzDxaYB5TS7d-14">
          <mxGeometry relative="1" as="geometry"/>
        </mxCell>
        <mxCell id="xuoZILpICzDxaYB5TS7d-55" style="edgeStyle=orthogonalEdgeStyle;rounded=0;orthogonalLoop=1;jettySize=auto;html=1;exitX=0.5;exitY=1;exitDx=0;exitDy=0;" edge="1" parent="1" source="xuoZILpICzDxaYB5TS7d-10" target="xuoZILpICzDxaYB5TS7d-12">
          <mxGeometry relative="1" as="geometry"/>
        </mxCell>
        <mxCell id="xuoZILpICzDxaYB5TS7d-10" value="&lt;pre&gt;&lt;span style=&quot;color: rgb(77 , 77 , 77) ; font-family: &amp;#34;microsoft yahei&amp;#34; , &amp;#34;sf pro display&amp;#34; , &amp;#34;roboto&amp;#34; , &amp;#34;noto&amp;#34; , &amp;#34;arial&amp;#34; , &amp;#34;pingfang sc&amp;#34; , sans-serif ; font-size: 16px ; white-space: normal ; background-color: rgb(255 , 255 , 255)&quot;&gt;scan_fhog_pyramid.h&lt;/span&gt;&lt;br&gt;&lt;/pre&gt;" style="rounded=1;whiteSpace=wrap;html=1;strokeWidth=1;" vertex="1" parent="1">
          <mxGeometry x="530" y="490" width="170" height="60" as="geometry"/>
        </mxCell>
        <mxCell id="xuoZILpICzDxaYB5TS7d-22" style="edgeStyle=orthogonalEdgeStyle;rounded=0;orthogonalLoop=1;jettySize=auto;html=1;" edge="1" parent="1" source="xuoZILpICzDxaYB5TS7d-12">
          <mxGeometry relative="1" as="geometry">
            <mxPoint x="530" y="310" as="targetPoint"/>
            <Array as="points">
              <mxPoint x="240" y="980"/>
              <mxPoint x="240" y="310"/>
            </Array>
          </mxGeometry>
        </mxCell>
        <mxCell id="xuoZILpICzDxaYB5TS7d-12" value="&lt;pre&gt;&lt;span style=&quot;color: rgb(77 , 77 , 77) ; font-family: &amp;#34;microsoft yahei&amp;#34; , &amp;#34;sf pro display&amp;#34; , &amp;#34;roboto&amp;#34; , &amp;#34;noto&amp;#34; , &amp;#34;arial&amp;#34; , &amp;#34;pingfang sc&amp;#34; , sans-serif ; font-size: 16px ; white-space: normal ; background-color: rgb(255 , 255 , 255)&quot;&gt;box_overlap_testing.h&lt;/span&gt;&lt;br&gt;&lt;/pre&gt;" style="rounded=1;whiteSpace=wrap;html=1;strokeWidth=1;" vertex="1" parent="1">
          <mxGeometry x="530" y="950" width="170" height="60" as="geometry"/>
        </mxCell>
        <mxCell id="xuoZILpICzDxaYB5TS7d-13" value="&lt;div&gt;&lt;br&gt;&lt;/div&gt;&lt;div&gt;typedef object_detector&amp;lt;scan_fhog_pyramid&amp;lt;pyramid_down&amp;lt;6&amp;gt; &amp;gt; &amp;gt; frontal_face_detector;&lt;/div&gt;&lt;div&gt;&amp;nbsp; &amp;nbsp; inline const std::string get_serialized_frontal_faces();&lt;/div&gt;&lt;div&gt;&amp;nbsp; &amp;nbsp; //获取已经训练好的模型，是字符串形式，deserialize后得到模型文件&lt;/div&gt;&lt;div&gt;&amp;nbsp; &amp;nbsp; inline frontal_face_detector get_frontal_face_detector()&lt;/div&gt;&lt;div&gt;&amp;nbsp; &amp;nbsp; {&lt;/div&gt;&lt;div&gt;&amp;nbsp; &amp;nbsp; &amp;nbsp; &amp;nbsp; std::istringstream sin(get_serialized_frontal_faces());&lt;/div&gt;&lt;div&gt;&amp;nbsp; &amp;nbsp; &amp;nbsp; &amp;nbsp; frontal_face_detector detector;&lt;/div&gt;&lt;div&gt;&amp;nbsp; &amp;nbsp; &amp;nbsp; &amp;nbsp; deserialize(detector, sin);&amp;nbsp;&lt;/div&gt;&lt;div&gt;&amp;nbsp; &amp;nbsp; &amp;nbsp; &amp;nbsp; return detector;&lt;/div&gt;&lt;div&gt;&amp;nbsp; &amp;nbsp; }&lt;/div&gt;&lt;div&gt;&lt;br&gt;&lt;/div&gt;" style="shape=note;whiteSpace=wrap;html=1;backgroundOutline=1;darkOpacity=0.05;align=left;strokeWidth=1;" vertex="1" parent="1">
          <mxGeometry x="1400" y="350" width="340" height="200" as="geometry"/>
        </mxCell>
        <mxCell id="xuoZILpICzDxaYB5TS7d-54" style="edgeStyle=orthogonalEdgeStyle;rounded=0;orthogonalLoop=1;jettySize=auto;html=1;" edge="1" parent="1" source="xuoZILpICzDxaYB5TS7d-14" target="xuoZILpICzDxaYB5TS7d-12">
          <mxGeometry relative="1" as="geometry"/>
        </mxCell>
        <mxCell id="xuoZILpICzDxaYB5TS7d-14" value="&lt;pre&gt;&lt;font color=&quot;#4d4d4d&quot; face=&quot;microsoft yahei, sf pro display, roboto, noto, arial, pingfang sc, sans-serif&quot;&gt;&lt;span style=&quot;font-size: 16px ; white-space: normal&quot;&gt;fhog.h&lt;/span&gt;&lt;/font&gt;&lt;br&gt;&lt;/pre&gt;" style="rounded=1;whiteSpace=wrap;html=1;strokeWidth=1;" vertex="1" parent="1">
          <mxGeometry x="690" y="705" width="170" height="60" as="geometry"/>
        </mxCell>
        <mxCell id="xuoZILpICzDxaYB5TS7d-17" value="执行 deserialize(detector, sin)" style="text;html=1;" vertex="1" parent="1">
          <mxGeometry x="440" y="230" width="180" height="30" as="geometry"/>
        </mxCell>
        <mxCell id="xuoZILpICzDxaYB5TS7d-29" style="edgeStyle=orthogonalEdgeStyle;rounded=0;orthogonalLoop=1;jettySize=auto;html=1;exitX=0.5;exitY=1;exitDx=0;exitDy=0;" edge="1" parent="1" source="xuoZILpICzDxaYB5TS7d-19" target="xuoZILpICzDxaYB5TS7d-25">
          <mxGeometry relative="1" as="geometry"/>
        </mxCell>
        <mxCell id="xuoZILpICzDxaYB5TS7d-19" value="开始" style="ellipse;whiteSpace=wrap;html=1;" vertex="1" parent="1">
          <mxGeometry x="555" y="-460" width="120" height="80" as="geometry"/>
        </mxCell>
        <mxCell id="xuoZILpICzDxaYB5TS7d-20" value="执行 deserialize(item.boxes_overlap, in)" style="text;html=1;" vertex="1" parent="1">
          <mxGeometry x="390" y="680" width="240" height="30" as="geometry"/>
        </mxCell>
        <mxCell id="xuoZILpICzDxaYB5TS7d-21" value="num_detectors = 5 //front, left,right, front left rotated, front right rotated人脸的五面" style="text;html=1;" vertex="1" parent="1">
          <mxGeometry x="20" y="500" width="190" height="140" as="geometry"/>
        </mxCell>
        <mxCell id="xuoZILpICzDxaYB5TS7d-38" style="edgeStyle=orthogonalEdgeStyle;rounded=0;orthogonalLoop=1;jettySize=auto;html=1;exitX=1;exitY=0.5;exitDx=0;exitDy=0;entryX=0;entryY=0.5;entryDx=0;entryDy=0;" edge="1" parent="1" source="xuoZILpICzDxaYB5TS7d-25" target="xuoZILpICzDxaYB5TS7d-37">
          <mxGeometry relative="1" as="geometry"/>
        </mxCell>
        <mxCell id="xuoZILpICzDxaYB5TS7d-52" style="edgeStyle=orthogonalEdgeStyle;rounded=0;orthogonalLoop=1;jettySize=auto;html=1;exitX=0.5;exitY=1;exitDx=0;exitDy=0;entryX=0.5;entryY=0;entryDx=0;entryDy=0;" edge="1" parent="1" source="xuoZILpICzDxaYB5TS7d-40" target="xuoZILpICzDxaYB5TS7d-50">
          <mxGeometry relative="1" as="geometry"/>
        </mxCell>
        <mxCell id="xuoZILpICzDxaYB5TS7d-25" value="&lt;font color=&quot;#4d4d4d&quot; face=&quot;microsoft yahei, sf pro display, roboto, noto, arial, pingfang sc, sans-serif&quot;&gt;&lt;span style=&quot;font-size: 16px&quot;&gt;face_detection_ex.cpp&lt;/span&gt;&lt;/font&gt;" style="rounded=1;whiteSpace=wrap;html=1;strokeWidth=1;" vertex="1" parent="1">
          <mxGeometry x="510" y="-330" width="210" height="130" as="geometry"/>
        </mxCell>
        <mxCell id="xuoZILpICzDxaYB5TS7d-27" value="加载图片" style="text;html=1;" vertex="1" parent="1">
          <mxGeometry x="545" y="-200" width="85" height="20" as="geometry"/>
        </mxCell>
        <mxCell id="xuoZILpICzDxaYB5TS7d-33" value="&lt;font style=&quot;font-size: 38px&quot;&gt;dlib人脸检测cpp源文件依赖关系&lt;/font&gt;" style="text;html=1;strokeColor=none;fillColor=none;align=center;verticalAlign=middle;whiteSpace=wrap;rounded=0;" vertex="1" parent="1">
          <mxGeometry x="340" y="-650" width="550" height="180" as="geometry"/>
        </mxCell>
        <mxCell id="xuoZILpICzDxaYB5TS7d-35" value="窗口显示" style="text;html=1;" vertex="1" parent="1">
          <mxGeometry x="740" y="-260" width="70" height="30" as="geometry"/>
        </mxCell>
        <mxCell id="xuoZILpICzDxaYB5TS7d-39" style="edgeStyle=orthogonalEdgeStyle;rounded=0;orthogonalLoop=1;jettySize=auto;html=1;exitX=0.5;exitY=1;exitDx=0;exitDy=0;entryX=0.5;entryY=0;entryDx=0;entryDy=0;" edge="1" parent="1" source="xuoZILpICzDxaYB5TS7d-25" target="xuoZILpICzDxaYB5TS7d-40">
          <mxGeometry relative="1" as="geometry">
            <mxPoint x="615" y="70" as="sourcePoint"/>
          </mxGeometry>
        </mxCell>
        <mxCell id="xuoZILpICzDxaYB5TS7d-37" value="&lt;font color=&quot;#4d4d4d&quot; face=&quot;microsoft yahei, sf pro display, roboto, noto, arial, pingfang sc, sans-serif&quot;&gt;&lt;span style=&quot;font-size: 16px&quot;&gt;gui_widgets.h&lt;/span&gt;&lt;/font&gt;" style="rounded=1;whiteSpace=wrap;html=1;strokeWidth=1;" vertex="1" parent="1">
          <mxGeometry x="840" y="-295" width="210" height="60" as="geometry"/>
        </mxCell>
        <mxCell id="xuoZILpICzDxaYB5TS7d-40" value="&lt;font color=&quot;#4d4d4d&quot; face=&quot;microsoft yahei, sf pro display, roboto, noto, arial, pingfang sc, sans-serif&quot;&gt;&lt;span style=&quot;font-size: 16px&quot;&gt;image_io.h&lt;/span&gt;&lt;/font&gt;" style="rounded=1;whiteSpace=wrap;html=1;strokeWidth=1;" vertex="1" parent="1">
          <mxGeometry x="510" y="-160" width="210" height="60" as="geometry"/>
        </mxCell>
        <mxCell id="xuoZILpICzDxaYB5TS7d-43" value="主程序" style="text;html=1;" vertex="1" parent="1">
          <mxGeometry x="555" y="-360" width="85" height="20" as="geometry"/>
        </mxCell>
        <mxCell id="xuoZILpICzDxaYB5TS7d-44" value="人脸检测主头文件" style="text;html=1;" vertex="1" parent="1">
          <mxGeometry x="510" y="70" width="85" height="20" as="geometry"/>
        </mxCell>
        <mxCell id="xuoZILpICzDxaYB5TS7d-45" value="hog特征提取" style="text;html=1;" vertex="1" parent="1">
          <mxGeometry x="675" y="600" width="90" height="30" as="geometry"/>
        </mxCell>
        <mxCell id="xuoZILpICzDxaYB5TS7d-47" value="在图像金字塔中首先将图像扩大至原来的二倍，&lt;br&gt;再把图像尺寸变为上一张图像的5/6，&lt;br&gt;直到图像尺寸小于64*64。&lt;br&gt;path=dlib/image_transforms/" style="text;html=1;" vertex="1" parent="1">
          <mxGeometry x="750" y="-30" width="260" height="80" as="geometry"/>
        </mxCell>
        <mxCell id="xuoZILpICzDxaYB5TS7d-56" style="edgeStyle=orthogonalEdgeStyle;rounded=0;orthogonalLoop=1;jettySize=auto;html=1;entryX=0.5;entryY=0;entryDx=0;entryDy=0;" edge="1" parent="1" source="xuoZILpICzDxaYB5TS7d-50" target="xuoZILpICzDxaYB5TS7d-4">
          <mxGeometry relative="1" as="geometry"/>
        </mxCell>
        <mxCell id="xuoZILpICzDxaYB5TS7d-50" value="&lt;font color=&quot;#4d4d4d&quot; face=&quot;microsoft yahei, sf pro display, roboto, noto, arial, pingfang sc, sans-serif&quot;&gt;&lt;span style=&quot;font-size: 16px&quot;&gt;image_pyramid.h&lt;/span&gt;&lt;/font&gt;" style="rounded=1;whiteSpace=wrap;html=1;strokeWidth=1;" vertex="1" parent="1">
          <mxGeometry x="510" y="-30" width="210" height="60" as="geometry"/>
        </mxCell>
        <mxCell id="xuoZILpICzDxaYB5TS7d-53" value="执行28 image_to_fhog （return image_to_fhog(rect, cell_size, filter_rows_padding, filter_cols_padding);）" style="text;html=1;" vertex="1" parent="1">
          <mxGeometry x="920" y="720" width="590" height="30" as="geometry"/>
        </mxCell>
        <mxCell id="xuoZILpICzDxaYB5TS7d-59" value="image_to_fhog" style="text;html=1;" vertex="1" parent="1">
          <mxGeometry x="670" y="650" width="100" height="30" as="geometry"/>
        </mxCell>
        <mxCell id="xuoZILpICzDxaYB5TS7d-60" value="&lt;pre&gt;&lt;font color=&quot;#4d4d4d&quot; face=&quot;microsoft yahei, sf pro display, roboto, noto, arial, pingfang sc, sans-serif&quot;&gt;&lt;span style=&quot;font-size: 16px ; white-space: normal&quot;&gt;rectangle.h&lt;/span&gt;&lt;/font&gt;&lt;br&gt;&lt;/pre&gt;" style="rounded=1;whiteSpace=wrap;html=1;strokeWidth=1;" vertex="1" parent="1">
          <mxGeometry x="530" y="1090" width="170" height="60" as="geometry"/>
        </mxCell>
        <mxCell id="xuoZILpICzDxaYB5TS7d-62" value="&lt;pre&gt;&lt;font color=&quot;#4d4d4d&quot; face=&quot;microsoft yahei, sf pro display, roboto, noto, arial, pingfang sc, sans-serif&quot;&gt;&lt;span style=&quot;font-size: 16px ; white-space: normal&quot;&gt;spatial_filtering.h&lt;/span&gt;&lt;/font&gt;&lt;/pre&gt;" style="rounded=1;whiteSpace=wrap;html=1;strokeWidth=1;" vertex="1" parent="1">
          <mxGeometry x="750" y="1110" width="170" height="60" as="geometry"/>
        </mxCell>
        <mxCell id="xuoZILpICzDxaYB5TS7d-63" value="金字塔操作" style="text;html=1;" vertex="1" parent="1">
          <mxGeometry x="540" y="-80" width="90" height="30" as="geometry"/>
        </mxCell>
        <mxCell id="xuoZILpICzDxaYB5TS7d-65" value="加载已经训练好的人脸检测模型。&lt;br&gt;get_serialized_frontal_faces（）" style="text;html=1;" vertex="1" parent="1">
          <mxGeometry x="750" y="140" width="260" height="50" as="geometry"/>
        </mxCell>
        <mxCell id="xuoZILpICzDxaYB5TS7d-66" value="图像卷积、金字塔等操作" style="text;html=1;" vertex="1" parent="1">
          <mxGeometry x="630" y="420" width="170" height="30" as="geometry"/>
        </mxCell>
        <mxCell id="xuoZILpICzDxaYB5TS7d-68" style="edgeStyle=orthogonalEdgeStyle;rounded=0;orthogonalLoop=1;jettySize=auto;html=1;entryX=1;entryY=0.5;entryDx=0;entryDy=0;" edge="1" parent="1" source="xuoZILpICzDxaYB5TS7d-67" target="xuoZILpICzDxaYB5TS7d-4">
          <mxGeometry relative="1" as="geometry"/>
        </mxCell>
        <mxCell id="xuoZILpICzDxaYB5TS7d-67" value="face" style="shape=cylinder;whiteSpace=wrap;html=1;boundedLbl=1;backgroundOutline=1;" vertex="1" parent="1">
          <mxGeometry x="980" y="120" width="60" height="80" as="geometry"/>
        </mxCell>
      </root>
    </mxGraphModel>
  </diagram>
</mxfile>
